<svg width="87" height="35" fill="none" xmlns="http://www.w3.org/2000/svg"><path d="M34.419 6.22v1.704h2.748v1.584h-2.748v1.848h3.108V13h-5.16V4.576h5.16V6.22h-3.108zm3.852 2.556c0-.832.18-1.572.54-2.22a3.82 3.82 0 011.5-1.524c.648-.368 1.38-.552 2.196-.552 1 0 1.856.264 2.568.792s1.188 1.248 1.428 2.16h-2.256a1.81 1.81 0 00-.72-.804 1.976 1.976 0 00-1.044-.276c-.632 0-1.144.22-1.536.66-.392.44-.588 1.028-.588 1.764s.196 1.324.588 1.764c.392.44.904.66 1.536.66.392 0 .74-.092 1.044-.276a1.81 1.81 0 00.72-.804h2.256c-.24.912-.716 1.632-1.428 2.16-.712.52-1.568.78-2.568.78-.816 0-1.548-.18-2.196-.54a3.924 3.924 0 01-1.5-1.524c-.36-.648-.54-1.388-.54-2.22zm16.544-4.2V13h-2.052V9.532h-3.192V13H47.52V4.576h2.052v3.3h3.192v-3.3h2.052zm5.226 8.508a4.43 4.43 0 01-2.184-.552 4.197 4.197 0 01-1.572-1.536c-.384-.664-.576-1.408-.576-2.232 0-.824.192-1.564.576-2.22a4.197 4.197 0 011.572-1.536 4.43 4.43 0 012.184-.552c.792 0 1.516.184 2.172.552.664.368 1.184.88 1.56 1.536.384.656.576 1.396.576 2.22 0 .824-.192 1.568-.576 2.232a4.108 4.108 0 01-1.56 1.536 4.363 4.363 0 01-2.172.552zm0-1.872c.672 0 1.208-.224 1.608-.672.408-.448.612-1.04.612-1.776 0-.744-.204-1.336-.612-1.776-.4-.448-.936-.672-1.608-.672-.68 0-1.224.22-1.632.66-.4.44-.6 1.036-.6 1.788 0 .744.2 1.34.6 1.788.408.44.952.66 1.632.66zm8.257 1.872c-.616 0-1.168-.1-1.656-.3-.488-.2-.88-.496-1.176-.888-.288-.392-.44-.864-.456-1.416h2.184c.032.312.14.552.324.72.184.16.424.24.72.24.304 0 .544-.068.72-.204a.72.72 0 00.264-.588.68.68 0 00-.216-.516 1.602 1.602 0 00-.516-.336 7.798 7.798 0 00-.864-.3 9.473 9.473 0 01-1.332-.504 2.461 2.461 0 01-.888-.744c-.248-.328-.372-.756-.372-1.284 0-.784.284-1.396.852-1.836.568-.448 1.308-.672 2.22-.672.928 0 1.676.224 2.244.672.568.44.872 1.056.912 1.848h-2.22c-.016-.272-.116-.484-.3-.636-.184-.16-.42-.24-.708-.24-.248 0-.448.068-.6.204-.152.128-.228.316-.228.564 0 .272.128.484.384.636.256.152.656.316 1.2.492.544.184.984.36 1.32.528.344.168.64.412.888.732s.372.732.372 1.236c0 .48-.124.916-.372 1.308-.24.392-.592.704-1.056.936-.464.232-1.012.348-1.644.348zm-32.883 17c-.616 0-1.168-.1-1.656-.3-.488-.2-.88-.496-1.176-.888-.288-.392-.44-.864-.456-1.416h2.184c.032.312.14.552.324.72.184.16.424.24.72.24.304 0 .544-.068.72-.204a.72.72 0 00.264-.588.68.68 0 00-.216-.516 1.602 1.602 0 00-.516-.336 7.798 7.798 0 00-.864-.3 9.473 9.473 0 01-1.332-.504 2.461 2.461 0 01-.888-.744c-.248-.328-.372-.756-.372-1.284 0-.784.284-1.396.852-1.836.568-.448 1.308-.672 2.22-.672.928 0 1.676.224 2.244.672.568.44.872 1.056.912 1.848h-2.22c-.016-.272-.116-.484-.3-.636-.184-.16-.42-.24-.708-.24-.248 0-.448.068-.6.204-.152.128-.228.316-.228.564 0 .272.128.484.384.636.256.152.656.316 1.2.492.544.184.984.36 1.32.528.344.168.64.412.888.732s.372.732.372 1.236c0 .48-.124.916-.372 1.308-.24.392-.592.704-1.056.936-.464.232-1.012.348-1.644.348zm8.078 0a4.43 4.43 0 01-2.184-.552 4.197 4.197 0 01-1.572-1.536c-.384-.664-.576-1.408-.576-2.232 0-.824.192-1.564.576-2.22a4.197 4.197 0 011.572-1.536 4.43 4.43 0 012.184-.552c.792 0 1.516.184 2.172.552.664.368 1.184.88 1.56 1.536.384.656.576 1.396.576 2.22 0 .824-.192 1.568-.576 2.232a4.108 4.108 0 01-1.56 1.536 4.363 4.363 0 01-2.172.552zm0-1.872c.672 0 1.208-.224 1.608-.672.408-.448.612-1.04.612-1.776 0-.744-.204-1.336-.612-1.776-.4-.448-.936-.672-1.608-.672-.68 0-1.224.22-1.632.66-.4.44-.6 1.036-.6 1.788 0 .744.2 1.34.6 1.788.408.44.952.66 1.632.66zM56.24 30h-2.052l-3.432-5.196V30h-2.052v-8.424h2.052l3.432 5.22v-5.22h2.052V30zm5.231.084a4.43 4.43 0 01-2.184-.552 4.197 4.197 0 01-1.572-1.536c-.384-.664-.576-1.408-.576-2.232 0-.824.192-1.564.576-2.22a4.197 4.197 0 011.572-1.536 4.43 4.43 0 012.184-.552c.792 0 1.516.184 2.172.552.664.368 1.184.88 1.56 1.536.384.656.576 1.396.576 2.22 0 .824-.192 1.568-.576 2.232a4.108 4.108 0 01-1.56 1.536 4.363 4.363 0 01-2.172.552zm0-1.872c.672 0 1.208-.224 1.608-.672.408-.448.612-1.04.612-1.776 0-.744-.204-1.336-.612-1.776-.4-.448-.936-.672-1.608-.672-.68 0-1.224.22-1.632.66-.4.44-.6 1.036-.6 1.788 0 .744.2 1.34.6 1.788.408.44.952.66 1.632.66zM70.976 30l-1.752-3.18h-.492V30H66.68v-8.424h3.444c.664 0 1.228.116 1.692.348.472.232.824.552 1.056.96.232.4.348.848.348 1.344 0 .56-.16 1.06-.48 1.5-.312.44-.776.752-1.392.936L73.292 30h-2.316zm-2.244-4.632h1.272c.376 0 .656-.092.84-.276.192-.184.288-.444.288-.78 0-.32-.096-.572-.288-.756-.184-.184-.464-.276-.84-.276h-1.272v2.088zm7.588-2.148v1.704h2.748v1.584H76.32v1.848h3.108V30h-5.16v-8.424h5.16v1.644H76.32zm7.248 6.864c-.616 0-1.168-.1-1.656-.3-.488-.2-.88-.496-1.176-.888-.288-.392-.44-.864-.456-1.416h2.184c.032.312.14.552.324.72.184.16.424.24.72.24.304 0 .544-.068.72-.204a.72.72 0 00.264-.588.68.68 0 00-.216-.516 1.602 1.602 0 00-.516-.336 7.798 7.798 0 00-.864-.3 9.473 9.473 0 01-1.332-.504 2.461 2.461 0 01-.888-.744c-.248-.328-.372-.756-.372-1.284 0-.784.284-1.396.852-1.836.568-.448 1.308-.672 2.22-.672.928 0 1.676.224 2.244.672.568.44.872 1.056.912 1.848h-2.22c-.016-.272-.116-.484-.3-.636-.184-.16-.42-.24-.708-.24-.248 0-.448.068-.6.204-.152.128-.228.316-.228.564 0 .272.128.484.384.636.256.152.656.316 1.2.492.544.184.984.36 1.32.528.344.168.64.412.888.732s.372.732.372 1.236c0 .48-.124.916-.372 1.308-.24.392-.592.704-1.056.936-.464.232-1.012.348-1.644.348z" fill="#DA261C"/><rect x="12.839" width="3.102" height="35" rx="1.551" fill="#DA261C"/><rect y="10.938" width="3.102" height="13.125" rx="1.551" fill="#DA261C"/><rect x="6.893" y="5.104" width="3.102" height="24.913" rx="1.551" fill="#DA261C"/><rect x="24.729" y="10.938" width="3.102" height="13.125" rx="1.551" fill="#fff"/><rect x="18.784" y="5.104" width="3.102" height="24.913" rx="1.551" fill="#fff"/></svg>